<svg aria-hidden="true" style="position: absolute; width: 0; height: 0; overflow: hidden;" version="1.1" xmlns="http://www.w3.org/2000/svg" xmlns:xlink="http://www.w3.org/1999/xlink">
<defs>
<symbol id="icon-search" viewBox="0 0 32 32">
<path d="M19.427 20.427c-1.39 0.99-3.090 1.573-4.927 1.573-4.694 0-8.5-3.806-8.5-8.5s3.806-8.5 8.5-8.5c4.694 0 8.5 3.806 8.5 8.5 0 1.837-0.583 3.537-1.573 4.927l5.585 5.585c0.55 0.55 0.546 1.431-0 1.976l-0.023 0.023c-0.544 0.544-1.431 0.546-1.976 0l-5.585-5.585zM14.5 20c3.59 0 6.5-2.91 6.5-6.5s-2.91-6.5-6.5-6.5c-3.59 0-6.5 2.91-6.5 6.5s2.91 6.5 6.5 6.5v0z"></path>
</symbol>
<symbol id="icon-arrow-right" viewBox="0 0 20 32">
<path  d="M3.673 1.2l-3.213 3.452 10.555 11.341-10.555 11.344 3.213 3.453 13.767-14.797-13.767-14.793z"></path>
</symbol>
<symbol id="icon-arrow-left" viewBox="0 0 20 32">
<path  d="M16.019 30.788l3.212-3.451-10.555-11.346 10.555-11.339-3.212-3.454-13.768 14.793 13.768 14.797z"></path>
</symbol>
<symbol id="icon-quotes" viewBox="0 0 45 32">
<path  d="M9.97 12.287c5.482 0 9.926 4.411 9.926 9.854 0 5.441-4.444 9.852-9.926 9.852s-9.926-4.411-9.926-9.852l-0.044-1.408c0-10.883 8.888-19.706 19.852-19.706v5.63c-3.788 0-7.348 1.465-10.027 4.124-0.516 0.511-0.986 1.057-1.41 1.63 0.507-0.078 1.026-0.122 1.555-0.122zM35.494 12.287c5.482 0 9.926 4.411 9.926 9.854 0 5.441-4.444 9.852-9.926 9.852s-9.926-4.411-9.926-9.852l-0.044-1.408c0-10.883 8.888-19.706 19.852-19.706v5.63c-3.787 0-7.348 1.465-10.027 4.124-0.516 0.511-0.986 1.057-1.41 1.63 0.507-0.078 1.026-0.122 1.556-0.122z"></path>
</symbol>
<symbol id="icon-plus" viewBox="0 0 30 32">
<path  d="M29.176 13.171h-10.353v-10.352c0-0.519-0.421-0.942-0.941-0.942h-5.647c-0.52 0-0.941 0.423-0.941 0.942v10.352h-10.353c-0.52 0-0.941 0.423-0.941 0.943v5.646c0 0.519 0.421 0.941 0.941 0.941h10.353v10.354c0 0.519 0.422 0.942 0.941 0.942h5.647c0.52 0 0.941-0.423 0.941-0.942v-10.354h10.353c0.52 0 0.941-0.422 0.941-0.941v-5.646c0-0.52-0.422-0.943-0.941-0.943z"></path>
</symbol>
<symbol id="icon-devices" viewBox="0 0 41 32">
<path   d="M33.813 2.644h-25.838v4.644h-2.277v-6.874h30.392v12.503h-2.277v-10.273zM16.123 31.998h-16.123v-23.698h16.123v23.698zM7.625 30.048c0 0.419 0.347 0.763 0.777 0.763s0.779-0.344 0.778-0.763c0-0.419-0.348-0.761-0.778-0.761s-0.777 0.341-0.777 0.761zM13.793 10.585h-11.462v17.485h11.461l0.001-17.485zM17.163 17.817h11.974v2.23h-11.974v-2.23zM30.314 31.628v-17.846h10.829v17.846h-10.829zM36.23 14.777c0-0.142-0.117-0.256-0.261-0.256s-0.262 0.113-0.262 0.256c0 0.14 0.118 0.257 0.262 0.257s0.261-0.117 0.261-0.257zM37.526 15.377h-3.115v0.245h3.115v-0.245zM35.242 30.245c0 0.338 0.281 0.613 0.625 0.613s0.625-0.275 0.625-0.613c0-0.338-0.281-0.611-0.625-0.611-0.346 0-0.625 0.275-0.625 0.611zM32.051 28.77c1.394 0.011 4.541 0.001 7.354-0.014v-12.258l-7.354 0.002v12.27zM17.163 20.959h11.974v3.166h-11.974v-1.222h8.026v-0.592h-8.026v-1.352z"></path>
</symbol>
<symbol id="icon-bulb" viewBox="0 0 20 32">
<path  d="M15.835 25.071c0 0.547-0.443 0.989-0.99 0.989h-9.897c-0.547 0-0.99-0.442-0.99-0.989s0.443-0.99 0.99-0.99h9.897c0.547 0 0.99 0.443 0.99 0.99zM14.845 27.050h-9.897c-0.547 0-0.99 0.442-0.99 0.99s0.443 0.989 0.99 0.989h9.897c0.547 0 0.99-0.442 0.99-0.989s-0.443-0.99-0.99-0.99zM7.918 31.999h3.959c1.094 0 1.979-0.885 1.979-1.979h-7.918c0 1.094 0.885 1.979 1.979 1.979zM19.794 10.226c0 5.381-3.244 6.008-3.852 11.876 0 0.547-0.443 0.99-0.99 0.99h-10.11c-0.547 0-0.99-0.443-0.99-0.99h-0.002c-0.607-5.869-3.85-6.495-3.85-11.876 0-5.466 4.43-9.897 9.897-9.897s9.897 4.431 9.897 9.897zM13.904 7.257c-11.505 2.721-5.938 9.897-5.938 9.897 0-3.959 2.907-4.887 2.969-4.763-2.041 1.979-2.969 8.722-2.969 8.722h1.979c0 0 0-1.98 0-3.959 5.629 0.309 3.959-9.217 3.959-9.897z"></path>
</symbol>
<symbol id="icon-crystal" viewBox="0 0 39 32">
<path  d="M31.282 0.419l-5.156 7.755-5.328-7.755h10.484zM25.308 9.948h-11.437l5.718 21.642 5.719-21.642zM14.253 8.677h10.673l-5.337-7.768-5.336 7.768zM13.052 8.175l5.328-7.755h-10.483l5.155 7.755zM18.377 31.998l-5.826-22.050h-12.551l18.377 22.050zM0.018 8.677h11.838l-5.157-7.757-6.681 7.757zM32.47 0.935l-5.147 7.742h11.817l-6.67-7.742zM26.627 9.948l-5.826 22.048 18.358-22.048h-12.531z"></path>
</symbol>
<symbol id="icon-finger" viewBox="0 0 19 32">
<path  d="M5.127 11.747l0.004-5.175c0-0.598 0.224-1.157 0.633-1.574 0.455-0.459 1.106-0.722 1.792-0.722 0.535 0 1.050 0.167 1.449 0.463 0.483 0.361 0.784 0.906 0.847 1.528 0 0.014 0.276 2.713 0.525 5.129 1.739-1.033 2.912-2.943 2.912-5.129 0-3.283-2.632-5.943-5.879-5.943s-5.879 2.66-5.879 5.943c-0.003 2.462 1.48 4.577 3.597 5.479zM5.361 31.292c0 0.388 0.315 0.707 0.7 0.707h10.344c0.385 0 0.7-0.319 0.7-0.707v-1.621h-11.744v1.621zM17.85 16.986c0.651 0.212 1.088 0.824 1.088 1.514l-0.007 5.639c0 0.839-0.224 1.659-0.647 2.377l-1.186 2.027h-11.744c-3.268-3.347-4.927-6.915-5.179-8.447-0.175-1.051 0.549-1.754 1.354-1.754 0.458 0 0.945 0.226 1.309 0.753 0.115 0.17 0.241 0.354 0.381 0.555 1.034 1.514 2.095 1.545 2.579 1.56l0.017 0h0.011c0.014 0 0.032 0 0.046-0.004h0.007c0.168-0.024 0.29-0.166 0.29-0.336l0.007-14.302c-0.004-0.803 0.696-1.234 1.375-1.234 0.598 0 1.179 0.336 1.253 1.044 0 0.014 0.903 8.84 0.906 8.868v0.004h0.003c0.248-0.223 0.661-0.354 1.134-0.354 0.175 0 0.357 0.018 0.542 0.052 0.598 0.121 4.518 1.397 6.46 2.038z"></path>
</symbol>
</defs>
</svg>
